<?xml version="1.0" encoding="iso-8859-1"?>
<!-- Uploaded to: SVG Repo, www.svgrepo.com, Generator: SVG Repo Mixer Tools -->
<svg fill="#000000" height="800px" width="800px" version="1.1" id="Layer_1" xmlns="http://www.w3.org/2000/svg" xmlns:xlink="http://www.w3.org/1999/xlink" 
	 viewBox="0 0 512 512" xml:space="preserve">
<g>
	<g>
		<path d="M220.48,290.538c-5.633,0-10.199,4.567-10.199,10.199v7.034c0,5.632,4.566,10.199,10.199,10.199
			s10.199-4.567,10.199-10.199v-7.034C230.679,295.105,226.113,290.538,220.48,290.538z"/>
	</g>
</g>
<g>
	<g>
		<path d="M220.48,328.74c-5.633,0-10.199,4.567-10.199,10.199v56.298c0,5.632,4.566,10.199,10.199,10.199
			s10.199-4.567,10.199-10.199v-56.298C230.679,333.307,226.113,328.74,220.48,328.74z"/>
	</g>
</g>
<g>
	<g>
		<path d="M306.26,185.169c-3.966-4.147-6.363-9.584-6.747-15.31l-1.923-28.647l-4.723-70.372l-1.899-28.303
			c8.172-2.634,14.104-10.305,14.104-19.341v-2.873C305.072,9.117,295.955,0,284.749,0h-57.497
			c-11.206,0-20.323,9.117-20.323,20.324v2.873c0,9.036,5.932,16.706,14.103,19.341l-1.899,28.303l-4.723,70.372l-1.923,28.646
			c-0.385,5.726-2.78,11.163-6.747,15.31c-0.024,0.026-0.05,0.053-0.074,0.078c-15.156,16.188-24.205,40.28-24.205,64.446v221.948
			h-0.001c0,22.254,18.105,40.358,40.358,40.358h68.362c22.254,0,40.358-18.105,40.358-40.358V249.693
			C330.539,225.806,321.258,201.105,306.26,185.169z M227.327,20.398h57.346v2.724h-57.346V20.398z M273.154,81.723l3.355,49.974
			h-41.015l3.354-49.974H273.154z M240.215,61.325l1.195-17.804h29.18l1.195,17.804H240.215z M220.523,199.225
			c7.241-7.59,11.615-17.53,12.318-27.999l1.284-19.131h43.754l1.284,19.13c0.703,10.488,5.092,20.447,12.302,27.985
			c11.24,11.945,18.328,30.65,18.666,49.105H201.872C202.211,229.938,209.291,211.244,220.523,199.225z M201.859,268.712h108.282
			v144.474H201.859V268.712z M290.182,491.602H221.82c-11.006,0-19.96-8.954-19.96-19.96v-38.056h108.282v38.056h0
			C310.142,482.648,301.188,491.602,290.182,491.602z"/>
	</g>
</g>
</svg>