<?xml version="1.0" encoding="iso-8859-1"?>
<!-- Uploaded to: SVG Repo, www.svgrepo.com, Generator: SVG Repo Mixer Tools -->
<svg fill="#000000" height="800px" width="800px" version="1.1" id="Layer_1" xmlns="http://www.w3.org/2000/svg" xmlns:xlink="http://www.w3.org/1999/xlink" 
	 viewBox="0 0 512 512" xml:space="preserve">
<g>
	<g>
		<path d="M501.801,108.112h-81.178c-4.981,0-9.234,3.598-10.058,8.511c-2.645,15.753-16.175,27.186-32.174,27.186
			s-29.53-11.433-32.174-27.186c-0.825-4.912-5.078-8.511-10.058-8.511H10.199C4.567,108.112,0,112.679,0,118.311v275.379
			c0,5.632,4.567,10.199,10.199,10.199h491.602c5.632,0,10.199-4.567,10.199-10.199V118.311
			C512,112.679,507.433,108.112,501.801,108.112z M491.602,383.49H20.398V128.51h307.855c7.237,21.122,27.116,35.697,50.137,35.697
			c23.022,0,42.901-14.576,50.137-35.697h63.074V383.49z"/>
	</g>
</g>
<g>
	<g>
		<path d="M94.853,155.028c-16.872,0-30.598,13.726-30.598,30.598s13.726,30.598,30.598,30.598s30.598-13.726,30.598-30.598
			S111.724,155.028,94.853,155.028z M94.853,195.825c-5.624,0-10.199-4.575-10.199-10.199s4.575-10.199,10.199-10.199
			s10.199,4.575,10.199,10.199S100.476,195.825,94.853,195.825z"/>
	</g>
</g>
<g>
	<g>
		<path d="M90.773,301.896c-17.435,0-31.617,14.183-31.617,31.618s14.183,31.617,31.617,31.617
			c17.435,0,31.618-14.183,31.618-31.617S108.207,301.896,90.773,301.896z M90.773,344.733c-6.186,0-11.219-5.033-11.219-11.219
			c0-6.186,5.033-11.219,11.219-11.219c6.186,0,11.219,5.033,11.219,11.219C101.992,339.7,96.959,344.733,90.773,344.733z"/>
	</g>
</g>
<g>
	<g>
		<path d="M404.908,253.96c-22.495,0-40.797,18.301-40.797,40.797s18.301,40.797,40.797,40.797s40.797-18.301,40.797-40.797
			S427.404,253.96,404.908,253.96z M404.908,315.155c-11.248,0-20.398-9.151-20.398-20.398c0-11.248,9.151-20.398,20.398-20.398
			s20.398,9.151,20.398,20.398C425.307,306.005,416.156,315.155,404.908,315.155z"/>
	</g>
</g>
<g>
	<g>
		<path d="M270.279,252.94c-15.747,0-28.558,12.811-28.558,28.558c0,15.747,12.811,28.558,28.558,28.558
			c15.747,0,28.558-12.811,28.558-28.558C298.837,265.751,286.025,252.94,270.279,252.94z M270.279,289.657
			c-4.499,0-8.159-3.66-8.159-8.159c0-4.499,3.661-8.159,8.159-8.159c4.499,0,8.159,3.661,8.159,8.159
			C278.438,285.997,274.778,289.657,270.279,289.657z"/>
	</g>
</g>
<g>
	<g>
		<path d="M260.08,141.769H158.088c-5.632,0-10.199,4.567-10.199,10.199s4.567,10.199,10.199,10.199H260.08
			c5.632,0,10.199-4.567,10.199-10.199S265.712,141.769,260.08,141.769z"/>
	</g>
</g>
<g>
	<g>
		<path d="M309.036,141.769h-14.279c-5.632,0-10.199,4.567-10.199,10.199s4.567,10.199,10.199,10.199h14.279
			c5.632,0,10.199-4.567,10.199-10.199S314.668,141.769,309.036,141.769z"/>
	</g>
</g>
</svg>