<?xml version="1.0" encoding="iso-8859-1"?>
<!-- Uploaded to: SVG Repo, www.svgrepo.com, Generator: SVG Repo Mixer Tools -->
<svg fill="#000000" height="800px" width="800px" version="1.1" id="Layer_1" xmlns="http://www.w3.org/2000/svg" xmlns:xlink="http://www.w3.org/1999/xlink" 
	 viewBox="0 0 512 512" xml:space="preserve">
<g>
	<g>
		<path d="M501.801,346.773h-12.239v-42.497v-41.987h12.239c5.633,0,10.199-4.566,10.199-10.199
			c0-109.196-88.838-198.034-198.035-198.034h-115.93C88.838,54.056,0,142.894,0,252.091c0,5.633,4.566,10.199,10.199,10.199h12.308
			v41.987v42.496H10.199C4.566,346.773,0,351.339,0,356.972v52.696c0,14.246,11.591,25.838,25.838,25.838h253.675l23.559,20.013
			c1.904,1.617,4.253,2.425,6.603,2.425c2.35,0,4.699-0.809,6.603-2.425l23.733-20.086h146.153
			c14.247,0,25.838-11.518,25.838-25.764v-52.696C512,351.339,507.434,346.773,501.801,346.773z M20.688,241.891
			c5.306-93.219,82.823-167.437,177.347-167.437h115.931c94.523,0,172.04,74.219,177.347,167.437H20.688z M61.686,314.476h75.346
			l36.41,30.928l-37.673,32.001L61.686,314.476z M68.199,346.773H42.906v-21.486L68.199,346.773z M42.906,294.077v-31.788h426.257
			v31.763L42.906,294.077z M25.838,415.108c-3,0-5.439-2.441-5.439-5.439v-42.497h71.394c0.134,0,0.264-0.015,0.397-0.02
			l36.976,31.409c1.904,1.618,4.253,2.425,6.603,2.425c2.349,0,4.699-0.809,6.603-2.425l36.953-31.389h19.743l56.432,47.936H25.838z
			 M309.674,434.363L168.539,314.475H450.81L309.674,434.363z M469.163,325.65v21.122h-24.866L469.163,325.65z M491.602,409.668
			c0,3-2.441,5.439-5.439,5.439H363.852l56.432-47.936h71.318V409.668z"/>
	</g>
</g>
<g>
	<g>
		<path d="M136.232,117.728c-3.983-3.984-10.441-3.984-14.424,0l-2.55,2.55c-3.983,3.983-3.983,10.441,0,14.425
			c1.992,1.992,4.602,2.987,7.212,2.987c2.61,0,5.221-0.995,7.212-2.987l2.55-2.55C140.215,128.17,140.215,121.712,136.232,117.728z
			"/>
	</g>
</g>
<g>
	<g>
		<path d="M371.832,106.509l-2.549-2.55c-3.983-3.983-10.441-3.983-14.425,0c-3.983,3.983-3.983,10.441,0,14.425l2.55,2.55
			c1.992,1.992,4.602,2.987,7.212,2.987s5.221-0.995,7.212-2.987C375.815,116.951,375.815,110.493,371.832,106.509z"/>
	</g>
</g>
<g>
	<g>
		<path d="M265.762,134.047c-3.983-3.984-10.441-3.984-14.424,0l-6.629,6.629c-3.983,3.983-3.983,10.441,0,14.425
			c1.992,1.992,4.602,2.987,7.212,2.987s5.221-0.995,7.212-2.987l6.629-6.629C269.744,144.489,269.744,138.031,265.762,134.047z"/>
	</g>
</g>
<g>
	<g>
		<path d="M346.334,147.306l-7.648-7.649c-3.983-3.983-10.441-3.983-14.425,0c-3.983,3.983-3.983,10.441,0,14.425l7.649,7.649
			c1.992,1.992,4.602,2.987,7.212,2.987c2.61,0,5.221-0.995,7.212-2.987C350.317,157.748,350.317,151.29,346.334,147.306z"/>
	</g>
</g>
<g>
	<g>
		<path d="M211.124,91.793h-11.219c-5.633,0-10.199,4.566-10.199,10.199c0,5.633,4.566,10.199,10.199,10.199h11.219
			c5.633,0,10.199-4.566,10.199-10.199C221.323,96.359,216.757,91.793,211.124,91.793z"/>
	</g>
</g>
<g>
	<g>
		<path d="M304.956,82.614c-5.633,0-10.199,4.566-10.199,10.199v6.12c0,5.633,4.566,10.199,10.199,10.199
			c5.633,0,10.199-4.566,10.199-10.199v-6.12C315.155,87.18,310.589,82.614,304.956,82.614z"/>
	</g>
</g>
<g>
	<g>
		<path d="M180.526,139.729h-3.06c-5.633,0-10.199,4.566-10.199,10.199s4.566,10.199,10.199,10.199h3.06
			c5.633,0,10.199-4.566,10.199-10.199S186.159,139.729,180.526,139.729z"/>
	</g>
</g>
<g>
	<g>
		<path d="M389.323,338.249c-3.581-4.348-10.008-4.972-14.356-1.389l-35.697,29.397c-4.348,3.581-4.971,10.008-1.389,14.356
			c2.017,2.449,4.935,3.717,7.879,3.717c2.282,0,4.578-0.763,6.477-2.326l35.697-29.397
			C392.282,349.025,392.904,342.597,389.323,338.249z"/>
	</g>
</g>
<g>
	<g>
		<path d="M324.048,392.006c-3.58-4.349-10.006-4.972-14.356-1.39l-4.08,3.36c-4.348,3.581-4.971,10.008-1.389,14.356
			c2.016,2.449,4.935,3.717,7.879,3.717c2.282,0,4.578-0.763,6.478-2.326l4.08-3.36C327.007,402.782,327.63,396.354,324.048,392.006
			z"/>
	</g>
</g>
</svg>