<?xml version="1.0" encoding="iso-8859-1"?>
<!-- Uploaded to: SVG Repo, www.svgrepo.com, Generator: SVG Repo Mixer Tools -->
<svg fill="#000000" height="800px" width="800px" version="1.1" id="Layer_1" xmlns="http://www.w3.org/2000/svg" xmlns:xlink="http://www.w3.org/1999/xlink" 
	 viewBox="0 0 512 512" xml:space="preserve">
<g>
	<g>
		<path d="M372.887,343.259c-5.131-2.316-11.175-0.036-13.493,5.099c-2.256,4.995-5.221,9.848-8.812,14.426
			c-3.478,4.432-2.704,10.843,1.727,14.321c1.867,1.466,4.087,2.175,6.29,2.175c3.024,0,6.019-1.339,8.031-3.902
			c4.605-5.868,8.426-12.133,11.356-18.625C380.304,351.619,378.021,345.578,372.887,343.259z"/>
	</g>
</g>
<g>
	<g>
		<path d="M343.199,385.158c-3.088-4.711-9.41-6.027-14.122-2.938c-19.19,12.58-43.799,19.508-69.296,19.508
			c-5.633,0-10.199,4.567-10.199,10.199s4.566,10.199,10.199,10.199c29.425,0,58.006-8.113,80.48-22.846
			C344.972,396.191,346.287,389.869,343.199,385.158z"/>
	</g>
</g>
<g>
	<g>
		<path d="M452.29,304.629c-1.912-1.912-4.507-2.987-7.212-2.987s-5.3,1.075-7.212,2.987l-19.403,19.403
			c-1.047-14.767-5.309-29.082-12.585-42.477l46.68-46.68c0.019-0.02,0.04-0.04,0.059-0.06l0.067-0.067
			c0.089-0.09,0.176-0.18,0.262-0.273c4.252-4.352,7.068-9.811,8.15-15.813l10.713-59.41c8.303-4.15,15.878-10.471,22.271-18.776
			C505.637,125.464,512,105.655,512,84.696c0-20.959-6.363-40.768-17.919-55.778C481.916,13.115,465.499,4.412,447.85,4.412
			c-11.781,0-23.299,4.011-33.31,11.601c-2.989,2.266-4.493,5.99-3.915,9.696c0.576,3.706,3.141,6.797,6.677,8.047
			c19.403,6.861,32.954,30.711,32.954,58c0,7.046-0.934,13.916-2.659,20.355c-8.587-4.575-16.279-12.927-21.072-23.267
			c-4.237-9.142-5.902-19.099-4.691-28.036c0.519-3.831-1.171-7.626-4.366-9.8c-3.195-2.176-7.345-2.359-10.719-0.471
			c-22.943,12.832-30.193,46.02-16.503,75.556c4.985,10.756,12.318,20.031,20.992,26.825l-8.225,45.61l-38.187,38.186
			c-15.589-10.914-33.728-19.368-53.326-24.936l12.206-25.635c0.204,0.004,0.407,0.015,0.612,0.015
			c15.632,0,28.351-12.718,28.351-28.351s-12.718-28.351-28.351-28.351c-15.633,0-28.351,12.718-28.351,28.351
			c0,8.084,3.407,15.382,8.852,20.551l-13.703,28.775c-11.513-2.002-23.365-3.054-35.371-3.054c-11.844,0-23.54,1.022-34.907,2.972
			l-13.663-28.692c5.445-5.169,8.852-12.467,8.852-20.551c0-15.632-12.718-28.351-28.351-28.351s-28.351,12.718-28.351,28.351
			c0,15.632,12.718,28.351,28.351,28.351c0.205,0,0.408-0.011,0.612-0.015l12.147,25.511c-19.643,5.53-37.831,13.959-53.471,24.853
			l-37.982-37.981l-8.209-45.523c8.495-6.651,15.836-15.823,20.976-26.913c13.689-29.536,6.44-62.724-16.503-75.556
			c-3.374-1.887-7.523-1.706-10.719,0.471c-3.194,2.176-4.885,5.971-4.366,9.8c1.212,8.938-0.454,18.894-4.691,28.036
			C80.679,99.183,72.987,107.535,64.4,112.11c-1.724-6.439-2.659-13.308-2.659-20.355c0-27.289,13.551-51.14,32.954-58
			c3.536-1.25,6.101-4.341,6.677-8.047c0.577-3.706-0.927-7.43-3.916-9.696C87.449,8.422,75.93,4.411,64.149,4.411
			c-17.648,0-34.066,8.703-46.231,24.506C6.363,43.928,0,63.737,0,84.696c0,20.958,6.363,40.768,17.919,55.778
			c6.393,8.304,13.968,14.626,22.271,18.776l10.713,59.411c1.082,6.001,3.897,11.46,8.15,15.812
			c0.086,0.093,0.173,0.184,0.262,0.273l0.067,0.067c0.02,0.02,0.04,0.04,0.059,0.06l46.353,46.353
			c-7.307,13.347-11.617,27.611-12.73,42.332l-18.931-18.931c-1.912-1.912-4.507-2.987-7.212-2.987s-5.299,1.075-7.212,2.987
			l-45.126,45.126c-3.983,3.983-3.983,10.441,0,14.425c1.992,1.991,4.602,2.987,7.212,2.987c2.61,0,5.221-0.996,7.212-2.987
			l37.915-37.915l27.831,27.831c0.252,0.252,0.514,0.487,0.784,0.707c4.37,18.436,13.868,35.752,27.951,50.925l-40.081,40.08
			c-1.912,1.913-2.987,4.507-2.987,7.212v44.371c0,5.632,4.566,10.199,10.199,10.199c5.633,0,10.199-4.567,10.199-10.199v-40.145
			l37.611-37.611c1.015,0.819,2.043,1.631,3.089,2.432c30.625,23.448,71.193,36.362,114.229,36.362s83.603-12.914,114.228-36.362
			c1.142-0.875,2.261-1.763,3.366-2.66l37.838,37.838v40.145c0,5.632,4.566,10.199,10.199,10.199
			c5.633,0,10.199-4.567,10.199-10.199v-44.371c0-2.705-1.075-5.298-2.987-7.212l-40.339-40.34
			c13.836-14.986,23.206-32.052,27.598-50.215c0.49-0.341,0.96-0.721,1.396-1.158l27.831-27.831l37.914,37.915
			c1.992,1.991,4.602,2.987,7.212,2.987s5.221-0.996,7.212-2.987c3.983-3.983,3.983-10.441,0-14.425L452.29,304.629z
			 M442.487,25.259c1.765-0.299,3.554-0.449,5.364-0.449c24.124,0,43.75,26.865,43.75,59.887c0,29.409-15.568,53.935-36.016,58.948
			c9.643-14.234,15.069-32.428,15.069-51.889C470.654,64.68,459.694,39.909,442.487,25.259z M324.32,149.854
			c4.385,0,7.952,3.568,7.952,7.952s-3.568,7.952-7.952,7.952s-7.952-3.568-7.952-7.952S319.936,149.854,324.32,149.854z
			 M187.68,165.758c-4.385,0-7.952-3.569-7.952-7.952c0-4.385,3.568-7.952,7.952-7.952s7.952,3.568,7.952,7.952
			S192.064,165.758,187.68,165.758z M41.346,91.755c0,19.461,5.426,37.655,15.069,51.889c-20.448-5.013-36.016-29.539-36.016-58.948
			c0-33.022,19.626-59.887,43.75-59.887c1.808,0,3.597,0.15,5.364,0.449C52.306,39.909,41.346,64.68,41.346,91.755z
			 M408.753,117.512c-4.622-9.975-5.966-20.59-4.392-29.602c0.998,3.225,2.22,6.407,3.657,9.509
			c6.987,15.076,18.323,26.956,31.467,33.456c-2.503,3.939-5.396,7.456-8.629,10.447
			C421.726,136.835,413.733,128.254,408.753,117.512z M419.698,210.69c1.471-1.471,2.457-3.356,2.826-5.403l7.644-42.392
			c4.558,1.367,9.183,2.081,13.705,2.081l3.978,0.004c0.74,0,1.476-0.038,2.212-0.068l-9.04,50.13
			c-0.362,2.008-1.316,3.831-2.757,5.269c-0.08,0.08-0.157,0.16-0.234,0.242l-43.671,43.67c-2.016-2.534-4.146-5.025-6.402-7.462
			c-2.283-2.466-4.684-4.849-7.17-7.163L419.698,210.69z M255.748,224.476c42.803,0,83.215,14.508,110.251,39.205
			c-27.036,24.7-67.444,39.222-110.251,39.222c-42.808,0-83.216-14.522-110.251-39.222
			C172.533,238.985,212.945,224.476,255.748,224.476z M103.981,97.42c1.438-3.102,2.659-6.284,3.657-9.509
			c1.573,9.012,0.229,19.627-4.394,29.601c-5.117,11.043-13.269,19.513-22.054,23.858c-3.253-3.002-6.161-6.535-8.677-10.494
			C85.658,124.376,96.993,112.495,103.981,97.42z M73.969,220.554c-0.076-0.082-0.154-0.162-0.234-0.242
			c-1.441-1.438-2.395-3.261-2.757-5.269l-9.04-50.13c0.736,0.031,1.471,0.068,2.212,0.068l4.179,0.022
			c4.529,0,9.07-0.7,13.518-2.03l7.63,42.313c0.369,2.047,1.355,3.931,2.826,5.403l38.666,38.665
			c-2.581,2.391-5.07,4.853-7.432,7.406c-2.172,2.348-4.229,4.745-6.179,7.182L73.969,220.554z M255.748,438.03
			c-78.617,0-142.576-47.901-142.576-106.776c0-18.559,6.372-36.542,18.527-52.538c30.773,28.087,76.229,44.586,124.049,44.586
			s93.276-16.499,124.049-44.586c12.154,15.996,18.527,33.978,18.527,52.538C398.323,390.13,334.364,438.03,255.748,438.03z"/>
	</g>
</g>
</svg>