<?xml version="1.0" encoding="iso-8859-1"?>
<!-- Uploaded to: SVG Repo, www.svgrepo.com, Generator: SVG Repo Mixer Tools -->
<svg fill="#000000" height="800px" width="800px" version="1.1" id="Layer_1" xmlns="http://www.w3.org/2000/svg" xmlns:xlink="http://www.w3.org/1999/xlink" 
	 viewBox="0 0 512 512" xml:space="preserve">
<g>
	<g>
		<path d="M426.303,248.834h-23.994c6.313-8.45,10.056-18.927,10.056-30.262c0-27.935-22.726-50.661-50.66-50.661h-0.991
			c2.645-5.135,4.148-10.95,4.148-17.112c0-20.683-16.828-37.51-37.511-37.51h-37.51c12.145-12.529,18.836-29.026,18.836-46.49
			c0-17.553-6.754-34.132-19.017-46.684C277.421,7.589,261.048,0.447,243.556,0.002c-5.595-0.106-10.239,4.231-10.451,9.809
			c-0.212,5.579,4.101,10.291,9.675,10.574c9.633,0.489,17.181,8.437,17.181,18.096c0,9.991-8.129,18.12-18.121,18.12
			c-21.239,0-38.518,17.28-38.518,38.519c0,6.562,1.646,12.75,4.547,18.17h-23.22c-20.683,0-37.51,16.828-37.51,37.511
			c0,6.162,1.503,11.977,4.147,17.111h-0.991c-27.935,0-50.661,22.726-50.661,50.661c0,11.335,3.743,21.812,10.056,30.262H85.697
			c-17.346,0-31.458,14.113-31.458,31.458c0,15.427,11.167,28.289,25.841,30.945l29.687,192.12c0.769,4.972,5.048,8.642,10.08,8.642
			h272.305c5.032,0,9.311-3.67,10.08-8.642l29.688-192.12c14.675-2.657,25.842-15.517,25.842-30.945
			C457.761,262.947,443.648,248.834,426.303,248.834z M241.84,76.999c20.527,0,37.355-16.138,38.461-36.394
			c5.047,7.438,7.978,16.448,7.978,26.195c0,25.38-19.871,45.763-45.254,46.406l-2.209,0.005c-9.592-0.53-17.096-8.46-17.096-18.091
			C223.72,85.128,231.849,76.999,241.84,76.999z M184.649,133.688h142.701c9.436,0,17.112,7.676,17.112,17.112
			c0,9.435-7.676,17.111-17.112,17.111H184.649c-9.435,0.001-17.111-7.676-17.111-17.112
			C167.538,141.364,175.214,133.688,184.649,133.688z M150.295,188.311h34.354h142.701h34.355c16.686,0,30.261,13.576,30.261,30.262
			c0,16.686-13.575,30.262-30.261,30.262h-211.41c-16.687,0-30.263-13.576-30.263-30.262
			C120.033,201.887,133.609,188.311,150.295,188.311z M383.409,491.601H128.591L100.8,311.751h310.4L383.409,491.601z
			 M426.304,291.353h-3.207H88.904h-3.207c-6.098,0-11.06-4.961-11.06-11.06s4.961-11.06,11.06-11.06h64.598h211.41h64.598
			c6.098,0,11.06,4.961,11.06,11.06S432.402,291.353,426.304,291.353z"/>
	</g>
</g>
<g>
	<g>
		<path d="M338.61,458.22h-23.265c-5.632,0-10.199,4.567-10.199,10.199s4.566,10.199,10.199,10.199h23.265
			c5.632,0,10.199-4.567,10.199-10.199S344.242,458.22,338.61,458.22z"/>
	</g>
</g>
<g>
	<g>
		<path d="M268.812,458.22H150.463c-5.632,0-10.199,4.567-10.199,10.199s4.567,10.199,10.199,10.199h118.349
			c5.632,0,10.199-4.567,10.199-10.199S274.444,458.22,268.812,458.22z"/>
	</g>
</g>
</svg>