<?xml version="1.0" encoding="iso-8859-1"?>
<!-- Uploaded to: SVG Repo, www.svgrepo.com, Generator: SVG Repo Mixer Tools -->
<svg fill="#000000" height="800px" width="800px" version="1.1" id="Layer_1" xmlns="http://www.w3.org/2000/svg" xmlns:xlink="http://www.w3.org/1999/xlink" 
	 viewBox="0 0 511.999 511.999" xml:space="preserve">
<g>
	<g>
		<path d="M199.946,449.133l-1.19-16.689c-0.4-5.619-5.283-9.849-10.898-9.449c-5.619,0.401-9.848,5.28-9.449,10.899l1.19,16.689
			c0.383,5.373,4.86,9.474,10.163,9.474c0.244,0,0.489-0.008,0.735-0.026C196.116,459.631,200.345,454.752,199.946,449.133z"/>
	</g>
</g>
<g>
	<g>
		<path d="M366.749,61.219c-20.712,0-40.298,7.944-55.153,22.369c-12.423,12.064-20.398,27.569-23.045,44.415H177.182L168.781,9.478
			c-0.304-4.294-3.272-7.934-7.416-9.098c-4.143-1.164-8.572,0.399-11.068,3.905L67.93,120.044
			c-3.266,4.59-2.192,10.958,2.398,14.223c4.589,3.268,10.957,2.194,14.223-2.397l65.892-92.605l6.29,88.736H132.45
			c-2.831,0-5.536,1.177-7.466,3.25c-1.93,2.073-2.911,4.855-2.708,7.679l8.149,113.531l17.947,250.068
			c0.382,5.335,4.823,9.469,10.173,9.469h182.666c5.349,0,9.79-4.134,10.173-9.469l17.948-250.068l2.368-32.997
			c41.377-2.564,74.259-37.025,74.259-79.037C445.959,96.752,410.426,61.219,366.749,61.219z M331.717,491.602H168.038
			l-16.483-229.67h14.596l9.56,134.106c0.382,5.373,4.86,9.474,10.162,9.474c0.244,0,0.489-0.008,0.735-0.026
			c5.619-0.401,9.848-5.28,9.449-10.899l-9.457-132.656H348.2L331.717,491.602z M349.666,241.534H150.092l-6.685-93.133h14.771
			l4.457,62.87c0.381,5.374,4.859,9.479,10.164,9.478c0.242,0,0.487-0.008,0.731-0.025c5.619-0.399,9.851-5.276,9.453-10.895
			l-4.354-61.428h109.313c3.495,34.595,29.476,63.009,63.404,69.717L349.666,241.534z M352.822,197.542
			c-23.296-5.673-41.057-25.236-44.33-49.142h47.857L352.822,197.542z M373.176,198.89l4.303-59.958
			c0.203-2.825-0.778-5.607-2.707-7.679c-1.929-2.072-4.633-3.25-7.466-3.25h-58.051c5.658-26.715,29.166-46.385,57.494-46.385
			c32.428,0,58.811,26.382,58.811,58.811C425.56,170.685,402.593,195.678,373.176,198.89z"/>
	</g>
</g>
</svg>