<?xml version="1.0" encoding="iso-8859-1"?>
<!-- Uploaded to: SVG Repo, www.svgrepo.com, Generator: SVG Repo Mixer Tools -->
<svg fill="#000000" height="800px" width="800px" version="1.1" id="Layer_1" xmlns="http://www.w3.org/2000/svg" xmlns:xlink="http://www.w3.org/1999/xlink" 
	 viewBox="0 0 512.001 512.001" xml:space="preserve">
<g>
	<g>
		<path d="M511.026,246.939l-1.896-6.407c-10.992-37.155-44.242-64.122-79.06-64.122c-20.873,0-53.49-9.397-85.034-18.484
			c-33.914-9.769-65.947-18.998-89.036-18.998c-22.783,0-53.689,9.254-86.409,19.053c-31.918,9.558-64.923,19.442-87.661,19.442
			c-34.992,0-68.241,26.54-79.06,63.108l-1.896,6.41c-2.104,7.114-0.765,14.601,3.676,20.545c3.714,4.972,9.081,8.17,15.079,9.082
			l0.994,0.689c1.577,1.093,3.184,2.118,4.814,3.087l17.361,84.581c0.974,4.742,5.148,8.148,9.991,8.148h406.223
			c4.842,0,9.017-3.405,9.991-8.148l17.357-84.56c2.03-1.184,4.024-2.451,5.969-3.824c5.935-0.943,11.24-4.128,14.922-9.058
			C511.791,261.543,513.13,254.055,511.026,246.939z M450.793,352.677H61.208l-12.951-63.093
			c21.254,5.088,44.07,1.522,63.046-10.619l1.124,0.741c27.962,18.443,63.641,18.091,91.196-0.81l5.249,3.322
			c26.817,16.965,61.367,16.805,88.029-0.411l4.798-3.098l7.093,4.398c13.104,8.124,28.083,12.182,43.058,12.182
			c15.227,0,30.45-4.195,43.697-12.575l6.148-3.89c18.851,11.93,41.224,15.399,62.093,10.557L450.793,352.677z M491.01,255.278
			c-0.323,0.434-1.056,1.162-2.316,1.162c-2.232,0-4.403,0.733-6.18,2.086c-21.142,16.103-50.057,16.795-71.948,1.715l-2.906-2.001
			c-3.365-2.317-7.786-2.404-11.238-0.22l-11.783,7.455c-19.716,12.473-45.272,12.589-65.1,0.295l-12.579-7.798
			c-1.647-1.021-3.51-1.531-5.375-1.531c-1.926,0-3.85,0.545-5.534,1.632l-10.219,6.601c-20.004,12.918-45.934,13.039-66.057,0.308
			l-11.002-6.96c-3.487-2.205-7.957-2.092-11.327,0.281l-4.707,3.317c-20.765,14.63-47.883,15.045-69.084,1.061l-6.905-4.554
			c-3.568-2.354-8.229-2.231-11.67,0.306l-1.373,1.013c-21.116,15.587-49.798,16.009-71.364,1.052l-3.227-2.238
			c-1.707-1.184-3.735-1.818-5.812-1.818c-1.261,0-1.993-0.727-2.316-1.162c-0.323-0.433-0.815-1.341-0.457-2.55l1.896-6.409
			c8.314-28.102,33.338-48.499,59.501-48.499c25.728,0,60.187-10.319,93.512-20.299c29.872-8.945,60.762-18.197,80.557-18.197
			c20.209,0,52.328,9.252,83.389,18.202c32.904,9.479,66.929,19.281,90.681,19.281c25.569,0,51.149,21.285,59.501,49.512
			l1.896,6.406C491.825,253.937,491.333,254.844,491.01,255.278z"/>
	</g>
</g>
<g>
	<g>
		<path d="M237.941,181.754c-1.56-5.413-7.214-8.529-12.626-6.972l-52.677,15.195c-5.413,1.561-8.533,7.214-6.973,12.626
			c1.289,4.468,5.367,7.375,9.795,7.375c0.936,0,1.888-0.131,2.831-0.403l52.677-15.195
			C236.381,192.819,239.502,187.167,237.941,181.754z"/>
	</g>
</g>
<g>
	<g>
		<path d="M339.364,189.979l-52.677-15.195c-5.414-1.559-11.066,1.559-12.626,6.973c-1.56,5.412,1.56,11.065,6.973,12.626
			l52.677,15.195c0.944,0.272,1.895,0.403,2.831,0.403c4.428,0,8.506-2.908,9.795-7.375
			C347.897,197.192,344.775,191.54,339.364,189.979z"/>
	</g>
</g>
<g>
	<g>
		<path d="M256,192.618c-5.632,0-10.199,4.567-10.199,10.199v13.17c0,5.632,4.567,10.199,10.199,10.199
			c5.632,0,10.199-4.567,10.199-10.199v-13.17C266.199,197.184,261.633,192.618,256,192.618z"/>
	</g>
</g>
<g>
	<g>
		<path d="M385.668,321.272h-52.677c-5.632,0-10.199,4.567-10.199,10.199c0,5.632,4.567,10.199,10.199,10.199h52.677
			c5.632,0,10.199-4.567,10.199-10.199C395.867,325.839,391.3,321.272,385.668,321.272z"/>
	</g>
</g>
<g>
	<g>
		<path d="M430.241,321.272h-12.157c-5.632,0-10.199,4.567-10.199,10.199c0,5.632,4.567,10.199,10.199,10.199h12.157
			c5.632,0,10.199-4.567,10.199-10.199C440.44,325.839,435.873,321.272,430.241,321.272z"/>
	</g>
</g>
</svg>